<svg width="24" height="24" viewBox="0 0 24 24" fill="none" xmlns="http://www.w3.org/2000/svg">
<rect x="23.5" y="23.5" width="23" height="23" rx="11.5" transform="rotate(-180 23.5 23.5)" fill="black" stroke="white"/>
<mask id="path-2-inside-1_101_112" fill="white">
<path fill-rule="evenodd" clip-rule="evenodd" d="M20.6544 3.68721C18.4708 1.41449 15.4006 -4.59299e-07 12 -7.56587e-07C8.46879 -1.0653e-06 5.29382 1.52526 3.09796 3.95291C7.19592 5.86199 10.0364 10.0175 10.0364 14.8363C10.0364 17.9325 8.86377 20.7549 6.93843 22.8834C8.4764 23.5999 10.1915 24 12 24C13.8079 24 15.5224 23.6002 17.0599 22.8842C14.9879 20.7276 13.7143 17.7983 13.7143 14.5714C13.7143 9.75188 16.5555 5.59595 20.6544 3.68721Z"/>
</mask>
<path d="M20.6544 3.68721L21.0765 4.59373L22.3447 4.00317L21.3755 2.99439L20.6544 3.68721ZM3.09796 3.95291L2.35633 3.28209L1.44728 4.28711L2.67567 4.85937L3.09796 3.95291ZM6.93843 22.8834L6.19681 22.2126L5.28775 23.2176L6.51614 23.7899L6.93843 22.8834ZM17.0599 22.8842L17.4821 23.7907L18.7503 23.2002L17.781 22.1914L17.0599 22.8842ZM12 0.999999C15.1174 1 17.9304 2.29543 19.9333 4.38003L21.3755 2.99439C19.0112 0.533556 15.6838 -1 12 -1L12 0.999999ZM3.83958 4.62372C5.85386 2.39683 8.76312 0.999999 12 0.999999L12 -1C8.17446 -1 4.73378 0.653692 2.35633 3.28209L3.83958 4.62372ZM11.0364 14.8363C11.0364 9.61437 7.95743 5.11356 3.52025 3.04644L2.67567 4.85937C6.43441 6.61043 9.03638 10.4206 9.03638 14.8363L11.0364 14.8363ZM7.68006 23.5543C9.7652 21.249 11.0364 18.19 11.0364 14.8363L9.03638 14.8363C9.03638 17.6751 7.96234 20.2607 6.19681 22.2126L7.68006 23.5543ZM12 23C10.3404 23 8.76916 22.6331 7.36072 21.977L6.51614 23.7899C8.18364 24.5667 10.0426 25 12 25L12 23ZM16.6378 21.9777C15.2297 22.6334 13.6591 23 12 23L12 25C13.9567 25 15.815 24.567 17.4821 23.7907L16.6378 21.9777ZM17.781 22.1914C15.8808 20.2136 14.7143 17.5298 14.7143 14.5714L12.7143 14.5714C12.7143 18.0667 14.0951 21.2417 16.3388 23.577L17.781 22.1914ZM14.7143 14.5714C14.7143 10.155 17.317 6.34447 21.0765 4.59373L20.2322 2.78068C15.7941 4.84743 12.7143 9.34874 12.7143 14.5714L14.7143 14.5714Z" fill="white" mask="url(#path-2-inside-1_101_112)"/>
</svg>
